{
	"asset":{
		"copyright":"CC0",
		"generator":"Khronos glTF Blender I/O v3.6.28",
		"version":"2.0"
	},
	"scene":0,
	"scenes":[
		{
			"name":"Scene",
			"nodes":[
				0
			]
		}
	],
	"nodes":[
		{
			"mesh":0,
			"name":"Terrain-col"
		}
	],
	"materials":[
		{
			"name":"Terrain",
			"normalTexture":{
				"index":0
			},
			"pbrMetallicRoughness":{
				"baseColorTexture":{
					"index":1
				},
				"metallicRoughnessTexture":{
					"index":2
				}
			}
		}
	],
	"meshes":[
		{
			"name":"Terrain",
			"primitives":[
				{
					"attributes":{
						"POSITION":0,
						"NORMAL":1,
						"TEXCOORD_0":2
					},
					"indices":3,
					"material":0
				}
			]
		}
	],
	"textures":[
		{
			"sampler":0,
			"source":0
		},
		{
			"sampler":0,
			"source":1
		},
		{
			"sampler":0,
			"source":2
		}
	],
	"images":[
		{
			"mimeType":"image/png",
			"name":"Terrain_N",
			"uri":"Terrain_N.png"
		},
		{
			"mimeType":"image/png",
			"name":"Terrain",
			"uri":"Terrain.png"
		},
		{
			"mimeType":"image/png",
			"name":"Terrain_ORM",
			"uri":"Terrain_ORM.png"
		}
	],
	"accessors":[
		{
			"bufferView":0,
			"componentType":5126,
			"count":59333,
			"max":[
				100.00170135498047,
				55.088226318359375,
				100.00375366210938
			],
			"min":[
				-100.00882720947266,
				-20.51625633239746,
				-100.00350952148438
			],
			"type":"VEC3"
		},
		{
			"bufferView":1,
			"componentType":5126,
			"count":59333,
			"type":"VEC3"
		},
		{
			"bufferView":2,
			"componentType":5126,
			"count":59333,
			"type":"VEC2"
		},
		{
			"bufferView":3,
			"componentType":5123,
			"count":71997,
			"type":"SCALAR"
		}
	],
	"bufferViews":[
		{
			"buffer":0,
			"byteLength":711996,
			"byteOffset":0,
			"target":34962
		},
		{
			"buffer":0,
			"byteLength":711996,
			"byteOffset":711996,
			"target":34962
		},
		{
			"buffer":0,
			"byteLength":474664,
			"byteOffset":1423992,
			"target":34962
		},
		{
			"buffer":0,
			"byteLength":143994,
			"byteOffset":1898656,
			"target":34963
		}
	],
	"samplers":[
		{
			"magFilter":9729,
			"minFilter":9987
		}
	],
	"buffers":[
		{
			"byteLength":2042652,
			"uri":"Terrain.bin"
		}
	]
}
